<svg t="1668938305778" class="icon" viewBox="0 0 1024 1024" version="1.1" xmlns="http://www.w3.org/2000/svg" p-id="9022" width="200" height="200"><path d="M647.09 343.12L555.22 452.8h70.31c15.53 0 28.12 12.59 28.12 28.12 0 15.53-12.59 28.12-28.12 28.12h-84.37v43.87h84.37c15.53 0 28.12 12.59 28.12 28.12 0 15.53-12.59 28.12-28.12 28.12h-84.37v96.18c0 15.53-12.59 28.12-28.12 28.12-15.53 0-28.12-12.59-28.12-28.12v-96.18h-84.37c-15.53 0-28.12-12.59-28.12-28.12 0-15.53 12.59-28.12 28.12-28.12h84.37v-43.87h-84.37c-15.53 0-28.12-12.59-28.12-28.12 0-15.53 12.59-28.12 28.12-28.12h70.31l-91.87-109.68c-9.99-11.91-8.44-29.66 3.47-39.65 11.91-9.99 29.66-8.44 39.65 3.47l90.93 108.55 90.93-108.55c9.99-11.91 27.75-13.46 39.65-3.47 11.91 9.99 13.46 27.74 3.47 39.65zM926.84 512c0 40.8 31.7 76.8 75.61 79.2 12.19 0 21.95 12 21.95 24V872c0 14.4-9.76 24-24.39 24H24.39C9.76 896 0 886.4 0 872V615.2c0-12 9.76-24 21.95-24 41.47-2.4 75.61-38.4 75.61-79.2 0-40.8-31.71-76.8-75.61-79.2-12.19 0-21.95-12-21.95-24V152c0-14.4 9.76-24 24.39-24h975.62c14.63 0 24.39 9.6 24.39 24v256.8c0 12-9.76 24-21.95 24-43.91 2.4-75.61 38.4-75.61 79.2zM851.4 512c0-54.11 23-112 101-132V207H72.4v169c78 22 94.95 79.89 94.95 134S142.4 630 72.4 653v160h880V647c-78-26-101-80.89-101-135z" p-id="9023"></path></svg>