<svg t="1668938369072" class="icon" viewBox="0 0 1024 1024" version="1.1" xmlns="http://www.w3.org/2000/svg" p-id="10324" width="200" height="200"><path d="M205.966978 712.670346h612.06502c46.02422 0 83.463923-37.438681 83.463924-83.463924V239.711524c0-46.02422-37.438681-83.463923-83.463924-83.463924H205.966978c-46.02422 0-83.463923 37.438681-83.463923 83.463924v389.495921c0.001023 46.02422 37.439704 83.4629 83.463923 83.462901z m-27.820625-472.958822c0-15.322987 12.497639-27.821649 27.821649-27.821649h612.06502c15.322987 0 27.821649 12.497639 27.821649 27.821649v389.495921c0 15.322987-12.497639 27.821649-27.821649 27.821649H205.966978c-15.322987 0-27.821649-12.497639-27.821649-27.821649V239.711524zM929.316547 812.109102H94.682429c-15.377222 0-27.821649 12.443403-27.821649 27.821649s12.443403 27.821649 27.821649 27.821649h834.634118c15.377222 0 27.821649-12.443403 27.821649-27.821649s-12.443403-27.821649-27.821649-27.821649z" fill="#231815" p-id="10325"></path><path d="M440.545598 449.348078c-15.377222 0-27.821649 12.443403-27.821649 27.821649s12.443403 27.821649 27.821649 27.821649h43.633776v38.308491c0 15.377222 12.443403 27.821649 27.821649 27.821649s27.821649-12.443403 27.821649-27.821649v-38.308491h43.198871c15.377222 0 27.821649-12.443403 27.821649-27.821649s-12.443403-27.821649-27.821649-27.821649h-43.198871V430.221462h43.633777c15.377222 0 27.821649-12.443403 27.821648-27.821649s-12.443403-27.821649-27.821648-27.821649h-18.149359l28.798906-28.798906c10.867512-10.867512 10.867512-28.473495 0-39.341007s-28.473495-10.867512-39.341007 0L511.403412 349.799828l-43.796481-43.796482c-10.867512-10.867512-28.473495-10.867512-39.341007 0s-10.867512 28.473495 0 39.341007l29.233811 29.233811H440.926268c-15.377222 0-27.821649 12.443403-27.821649 27.821649s12.443403 27.821649 27.821649 27.821649h43.253106v19.126616h-43.633776z" fill="#231815" p-id="10326"></path></svg>