<svg t="1668938764916" class="icon" viewBox="0 0 1024 1024" version="1.1" xmlns="http://www.w3.org/2000/svg" p-id="14351" width="200" height="200"><path d="M114.145882 726.136471a30.117647 30.117647 0 1 0-53.910588 28.611764 518.023529 518.023529 0 0 0 140.047059 164.141177 30.117647 30.117647 0 1 0 36.442353-47.887059 456.282353 456.282353 0 0 1-122.578824-144.865882zM512 0A512 512 0 0 0 0 512a30.117647 30.117647 0 0 0 60.235294 0 451.764706 451.764706 0 1 1 361.411765 442.428235 30.117647 30.117647 0 1 0-12.047059 60.235294A512 512 0 1 0 512 0z" fill="#020202" p-id="14352"></path><path d="M300.875294 521.938824v60.235294H481.882353v221.665882h60.235294v-221.665882h180.705882v-60.235294h-180.705882v-79.510589h180.705882v-60.235294h-139.745882l119.265882-119.265882-42.767058-42.465883-147.576471 147.275295-147.275294-147.275295-42.767059 42.465883 119.265882 119.265882h-139.745882v60.235294H481.882353v79.510589H300.875294z" fill="#020202" p-id="14353"></path></svg>