<svg t="1668938446283" class="icon" viewBox="0 0 1024 1024" version="1.1" xmlns="http://www.w3.org/2000/svg" p-id="10698" width="200" height="200"><path d="M925.538462 196.923077c21.752123 0 39.384615 17.632492 39.384615 39.384615v551.384616c0 21.752123-17.632492 39.384615-39.384615 39.384615H98.461538c-21.752123 0-39.384615-17.632492-39.384615-39.384615V236.307692c0-21.752123 17.632492-39.384615 39.384615-39.384615h827.076924zM917.661538 417.476923H106.338462v323.075939c0 21.385846 17.041723 38.785969 38.281846 39.368861l1.102769 0.015754h732.553846c21.385846 0 38.785969-17.037785 39.368862-38.281846l0.015753-1.102769-0.003938-323.075939zM519.876923 689.230769v47.261539H149.661538v-47.261539h370.215385z m140.429785 0v47.261539H567.138462v-47.261539h93.168246zM878.276923 244.062523H145.723077c-21.385846 0-38.785969 17.037785-39.368862 38.281846l-0.015753 1.102769V370.215385h811.319138L917.661538 283.447138c0-21.752123-17.632492-39.384615-39.384615-39.384615z" fill="#000000" p-id="10699"></path></svg>