<svg t="1665151641262" class="icon" viewBox="0 0 1024 1024" version="1.1" xmlns="http://www.w3.org/2000/svg" p-id="29282" width="200" height="200">
    <path d="M370.4576 275.2256a25.6 25.6 0 0 1 37.8624 34.3296l-2.176 2.3808-79.872 77.6448H767.744a25.6 25.6 0 0 1 25.4464 22.6304l0.1536 2.9952a25.6 25.6 0 0 1-22.6048 25.4208l-2.9952 0.1792H263.2192c-21.9648 0-33.28-25.5744-19.8144-41.8048l1.9712-2.1504 125.0816-121.6zM663.6032 736.8448a25.6 25.6 0 0 1-37.6064-34.6112l2.176-2.3552 75.8528-72.6528-440.832-0.0256a25.6 25.6 0 0 1-25.4464-22.6048L237.568 601.6a25.6 25.6 0 0 1 22.6304-25.4208l2.9696-0.1792h504.5248c22.0672 0 33.3824 25.728 19.7376 41.9328l-2.0224 2.1504-121.8048 116.736z" fill="#2c2c2c" p-id="29283"></path>
</svg>