<svg t="1665151572577" class="icon" viewBox="0 0 1024 1024" version="1.1" xmlns="http://www.w3.org/2000/svg" p-id="23412" width="200" height="200">
    <path d="M368.64 220.161024c-14.138368 0-25.6-11.461632-25.6-25.6C343.04 152.213504 377.49248 117.76 419.841024 117.76H604.16c42.34752 0 76.8 34.45248 76.8 76.8 0 14.138368-11.461632 25.6-25.6 25.6s-25.6-11.461632-25.6-25.6c0-14.11584-11.48416-25.6-25.6-25.6H419.841024C405.72416 168.96 394.24 180.44416 394.24 194.561024 394.24 208.699392 382.778368 220.161024 368.64 220.161024z" fill="" p-id="23413"></path>
    <path d="M335.435776 906.24h-81.92c-14.138368 0-25.6-11.461632-25.6-25.6s11.461632-25.6 25.6-25.6h81.92c14.138368 0 25.6 11.461632 25.6 25.6S349.575168 906.24 335.435776 906.24z" fill="" p-id="23414"></path>
    <path d="M614.403072 855.04h-204.8c-14.138368 0-25.6-11.461632-25.6-25.6s11.461632-25.6 25.6-25.6h204.8c14.138368 0 25.6 11.461632 25.6 25.6S628.542464 855.04 614.403072 855.04z" fill="" p-id="23415"></path>
    <path d="M614.4 529.846272h-76.8v-76.8c0-14.138368-11.461632-25.6-25.6-25.6s-25.6 11.461632-25.6 25.6v76.8h-76.8c-14.138368 0-25.6 11.461632-25.6 25.6s11.461632 25.6 25.6 25.6h76.8v76.8c0 14.138368 11.461632 25.6 25.6 25.6s25.6-11.461632 25.6-25.6v-76.8h76.8c14.138368 0 25.6-11.461632 25.6-25.6S628.538368 529.846272 614.4 529.846272z" fill="" p-id="23416"></path>
    <path d="M179.352576 855.04c-6.551552 0-13.103104-2.49856-18.101248-7.497728C133.204992 819.497984 117.76 782.211072 117.76 742.549504V389.12c0-81.871872 66.608128-148.48 148.48-148.48h491.521024C839.632896 240.64 906.24 307.247104 906.24 389.118976v353.429504c0 39.65952-15.444992 76.946432-43.488256 104.99072-9.997312 9.997312-26.206208 9.997312-36.20352 0-9.997312-9.997312-9.997312-26.206208 0-36.20352C844.920832 792.962048 855.04 768.53248 855.04 742.54848V389.118976C855.04 335.478784 811.401216 291.84 757.761024 291.84H266.24c-53.640192 0-97.28 43.639808-97.28 97.28v353.429504c0 25.985024 10.119168 50.414592 28.493824 68.788224 9.997312 9.997312 9.998336 26.206208 0.001024 36.20352C192.456704 852.540416 185.904128 855.04 179.352576 855.04z" fill="" p-id="23417"></path>
    <path d="M770.485248 906.24h-81.92c-14.138368 0-25.6-11.461632-25.6-25.6s11.461632-25.6 25.6-25.6h81.92c14.138368 0 25.6 11.461632 25.6 25.6S784.62464 906.24 770.485248 906.24z" fill="" p-id="23418"></path>
</svg>