<svg t="1665237572145" class="icon" viewBox="0 0 1024 1024" version="1.1" xmlns="http://www.w3.org/2000/svg" p-id="7310" width="200" height="200">
    <path d="M887.466667 398.222222V295.822222h-625.777778v455.111111h625.777778V455.111111h-625.777778V398.222222h625.777778z m-625.777778-159.288889h625.777778c34.133333 0 56.888889 22.755556 56.888889 56.888889v455.111111c0 34.133333-22.755556 56.888889-56.888889 56.888889h-625.777778c-34.133333 0-56.888889-22.755556-56.888889-56.888889v-455.111111c0-34.133333 22.755556-56.888889 56.888889-56.888889z m-119.466667 358.4c0 17.066667-11.377778 28.444444-28.444444 28.444445s-28.444444-11.377778-28.444445-28.444445v-455.111111c0-5.688889 0-11.377778 5.688889-17.066666 5.688889-5.688889 11.377778-5.688889 17.066667-5.688889h603.022222c17.066667 0 34.133333 17.066667 34.133333 34.133333s-17.066667 34.133333-34.133333 34.133333h-568.888889v409.6z m364.088889-39.822222s5.688889 0 5.688889 5.688889v113.777778H341.333333c-5.688889 0-11.377778-5.688889-11.377777-11.377778V568.888889c0-5.688889 5.688889-11.377778 11.377777-11.377778h164.977778z m-386.844444 159.288889c17.066667 0 28.444444 17.066667 22.755555 34.133333 0 0-5.688889 34.133333 17.066667 62.577778 22.755556 22.755556 56.888889 39.822222 108.088889 45.511111l85.333333 11.377778c5.688889 5.688889 5.688889 11.377778 5.688889 22.755556 0 5.688889-5.688889 17.066667-11.377778 22.755555l-85.333333 68.266667c-11.377778 11.377778-28.444444 5.688889-39.822222-5.688889-11.377778-11.377778-5.688889-28.444444 5.688889-39.822222l22.755555-17.066667c-62.577778-5.688889-108.088889-28.444444-136.533333-62.577778-39.822222-51.2-34.133333-108.088889-34.133334-108.088889 11.377778-22.755556 22.755556-34.133333 39.822223-34.133333z" fill="#999999" p-id="7311"></path>
</svg>